<?xml version="1.0" standalone="no"?><!DOCTYPE svg PUBLIC "-//W3C//DTD SVG 1.1//EN" "http://www.w3.org/Graphics/SVG/1.1/DTD/svg11.dtd"><svg t="1608564550838" class="icon" viewBox="0 0 1024 1024" version="1.1" xmlns="http://www.w3.org/2000/svg" p-id="3730" xmlns:xlink="http://www.w3.org/1999/xlink" width="128" height="128"><defs><style type="text/css"></style></defs><path d="M676.9 959.5H237.5c-9.2 0-16.6-7.4-16.6-16.6V225c0-9.2 7.4-16.6 16.6-16.6H677c9.2 0 16.6 7.4 16.6 16.6v718c-0.1 9.1-7.5 16.5-16.7 16.5z m-422.8-33.1h406.3V241.6H254.1v684.8z" fill="#3D2C1F" p-id="3731"></path><path d="M630.6 97.4c3.6 0 7.3 0.5 11 1.4l193.5 49.7-6.6 25.5-192.6-49.5c-1.6-0.4-3.1-0.6-4.7-0.6-3.3 0-6.6 0.9-9.5 2.6-4.3 2.5-7.4 6.6-8.6 11.5L437.5 821l-25.5-6.6 175.7-683.8c5.2-19.9 23.2-33.2 42.9-33.2m0-33.2c-35.3 0-66.2 23.9-75 58.2L379.9 806.1c-2.2 8.5-0.9 17.6 3.6 25.1 4.5 7.6 11.8 13.1 20.3 15.2l25.5 6.6c2.8 0.7 5.5 1.1 8.3 1.1 14.8 0 28.2-9.9 32.1-24.9l171.9-669 178.7 45.9c2.7 0.7 5.5 1 8.3 1 5.9 0 11.7-1.6 16.9-4.6 7.6-4.5 13.1-11.8 15.2-20.3l6.6-25.5c4.6-17.7-6.1-35.8-23.9-40.4L649.9 66.7c-6.3-1.7-12.8-2.5-19.3-2.5z" fill="#3D2C1F" p-id="3732"></path><path d="M676.9 959.5H237.5c-9.2 0-16.6-7.4-16.6-16.6V361.2c0-9.2 7.4-16.6 16.6-16.6H677c9.2 0 16.6 7.4 16.6 16.6V943c-0.1 9.1-7.5 16.5-16.7 16.5z m-422.8-33.1h406.3V377.8H254.1v548.6z" fill="#3D2C1F" p-id="3733"></path><path d="M299.6 704.5c-9.1 0-16.5-7.4-16.6-16.5l-0.9-253.7c0-9.1 7.4-16.6 16.5-16.6h0.1c9.1 0 16.5 7.4 16.6 16.5l0.9 253.7c0 9.1-7.4 16.5-16.6 16.6z" fill="#3D2C1F" p-id="3734"></path><path d="M300.9 741.7m-16.6 0a16.6 16.6 0 1 0 33.2 0 16.6 16.6 0 1 0-33.2 0Z" fill="#3C2B1F" p-id="3735"></path><path d="M676.9 959.5H237.5c-9.2 0-16.6-7.4-16.6-16.6v-70.2c0-9.2 7.4-16.6 16.6-16.6H677c9.2 0 16.6 7.4 16.6 16.6V943c-0.1 9.1-7.5 16.5-16.7 16.5z m-422.8-33.1h406.3v-37H254.1v37z" fill="#3D2C1F" p-id="3736"></path></svg>